<?xml version="1.0" encoding="UTF-8"?>
<svg version="1.1" xmlns="http://www.w3.org/2000/svg" width="40" height="40">
<path d="M0 0 C1.65 0.33 3.3 0.66 5 1 C4.34 7.27 3.68 13.54 3 20 C4.60875 18.989375 6.2175 17.97875 7.875 16.9375 C10.6171875 15.21484375 10.6171875 15.21484375 13 14 C13.66 14.33 14.32 14.66 15 15 C14.67 15.66 14.34 16.32 14 17 C13.95977609 19.3329866 13.95679753 21.66706666 14 24 C14.66 24.33 15.32 24.66 16 25 C14.9730655 28.30901116 13.96077893 29.0219638 10.875 30.75 C6.76344616 32.31548703 3.372356 32.4372356 -1 32 C-3.01685764 30.48970195 -3.85623617 29.45494884 -4.6171875 27.046875 C-5.59777664 18.31071717 -4.45064376 7.73517998 0 0 Z " fill="#EAE9ED" transform="translate(15,3)"/>
</svg>
